<svg width="340" height="87" viewBox="0 0 340 87" fill="none" xmlns="http://www.w3.org/2000/svg">
<g clip-path="url(#clip0_275_1100)">
<path d="M27.554 9.72603C21.1013 9.72603 15.4296 13.9463 13.5995 20.1308L0.425971 64.2188C0.14199 65.1969 0 66.1829 0 67.1295C0 72.5488 4.37803 77.2819 10.1681 77.2819C14.6408 77.2819 18.5928 74.3237 19.8865 70.0246L34.8113 19.334C36.2233 14.5458 32.6499 9.74181 27.6566 9.72603H27.554Z" fill="white"/>
<path d="M36.9805 24.2721L30.1177 47.2588L41.2797 64.4002L48.0163 41.5713L36.9805 24.2721Z" fill="white"/>
<path d="M50.446 77.274C56.8987 77.274 62.5704 73.0537 64.4084 66.8692L77.5741 22.7812C77.858 21.8031 78 20.8249 78 19.8704C78 14.4512 73.622 9.71814 67.8319 9.71814C63.3593 9.71814 59.4072 12.6763 58.1135 16.9754L43.1887 67.6581C41.7767 72.4463 45.358 77.2503 50.3514 77.2661H50.4539L50.446 77.274Z" fill="white"/>
</g>
<path d="M94.803 65.512C93.5657 65.512 92.6057 65.1707 91.923 64.488C91.283 63.8053 90.963 62.824 90.963 61.544V23.464C90.963 22.1413 91.283 21.1387 91.923 20.456C92.6057 19.7307 93.4803 19.368 94.547 19.368C95.5283 19.368 96.2537 19.56 96.723 19.944C97.235 20.2853 97.8323 20.8827 98.515 21.736L123.027 53.544H121.363V23.272C121.363 22.0347 121.683 21.0747 122.323 20.392C123.006 19.7093 123.966 19.368 125.203 19.368C126.44 19.368 127.379 19.7093 128.019 20.392C128.659 21.0747 128.979 22.0347 128.979 23.272V61.672C128.979 62.8667 128.68 63.8053 128.083 64.488C127.486 65.1707 126.675 65.512 125.651 65.512C124.67 65.512 123.88 65.32 123.283 64.936C122.728 64.552 122.11 63.9333 121.427 63.08L96.979 31.272H98.579V61.544C98.579 62.824 98.259 63.8053 97.619 64.488C96.979 65.1707 96.0403 65.512 94.803 65.512ZM154.774 65.64C151.233 65.64 148.182 64.9787 145.622 63.656C143.062 62.3333 141.078 60.456 139.67 58.024C138.305 55.592 137.622 52.712 137.622 49.384C137.622 46.1413 138.283 43.304 139.606 40.872C140.971 38.44 142.827 36.5413 145.174 35.176C147.563 33.768 150.273 33.064 153.302 33.064C155.521 33.064 157.505 33.4267 159.254 34.152C161.046 34.8773 162.561 35.9227 163.798 37.288C165.078 38.6533 166.038 40.3173 166.678 42.28C167.361 44.2 167.702 46.376 167.702 48.808C167.702 49.576 167.425 50.1733 166.87 50.6C166.358 50.984 165.611 51.176 164.63 51.176H144.086V46.568H162.07L161.046 47.528C161.046 45.5653 160.747 43.9227 160.15 42.6C159.595 41.2773 158.763 40.2747 157.654 39.592C156.587 38.8667 155.243 38.504 153.622 38.504C151.83 38.504 150.294 38.9307 149.014 39.784C147.777 40.5947 146.817 41.768 146.134 43.304C145.494 44.7973 145.174 46.5893 145.174 48.68V49.128C145.174 52.6267 145.985 55.2507 147.606 57C149.27 58.7067 151.702 59.56 154.902 59.56C156.011 59.56 157.249 59.432 158.614 59.176C160.022 58.8773 161.345 58.3867 162.582 57.704C163.478 57.192 164.267 56.9787 164.95 57.064C165.633 57.1067 166.166 57.3413 166.55 57.768C166.977 58.1947 167.233 58.728 167.318 59.368C167.403 59.9653 167.275 60.584 166.934 61.224C166.635 61.864 166.102 62.4187 165.334 62.888C163.841 63.8267 162.113 64.5307 160.15 65C158.23 65.4267 156.438 65.64 154.774 65.64ZM193.366 65.64C190.72 65.64 188.395 64.9787 186.39 63.656C184.427 62.3333 183.126 60.5627 182.486 58.344L183.19 56.744V61.416C183.19 62.7387 182.848 63.7627 182.166 64.488C181.483 65.1707 180.523 65.512 179.286 65.512C178.006 65.512 177.024 65.1707 176.342 64.488C175.659 63.7627 175.318 62.7387 175.318 61.416V23.4C175.318 22.0773 175.659 21.0747 176.342 20.392C177.024 19.7093 178.006 19.368 179.286 19.368C180.566 19.368 181.547 19.7093 182.23 20.392C182.955 21.0747 183.318 22.0773 183.318 23.4V40.04H182.55C183.232 37.9493 184.555 36.264 186.518 34.984C188.48 33.704 190.763 33.064 193.366 33.064C196.139 33.064 198.55 33.7253 200.598 35.048C202.646 36.3707 204.246 38.248 205.398 40.68C206.55 43.0693 207.126 45.9493 207.126 49.32C207.126 52.648 206.55 55.5493 205.398 58.024C204.246 60.456 202.624 62.3333 200.534 63.656C198.486 64.9787 196.096 65.64 193.366 65.64ZM191.126 59.56C192.704 59.56 194.091 59.176 195.286 58.408C196.48 57.64 197.398 56.5093 198.038 55.016C198.72 53.48 199.062 51.5813 199.062 49.32C199.062 45.9067 198.336 43.368 196.886 41.704C195.435 39.9973 193.515 39.144 191.126 39.144C189.547 39.144 188.16 39.528 186.966 40.296C185.771 41.0213 184.832 42.152 184.15 43.688C183.51 45.1813 183.19 47.0587 183.19 49.32C183.19 52.6907 183.915 55.2507 185.366 57C186.816 58.7067 188.736 59.56 191.126 59.56ZM226.301 65.64C223.698 65.64 221.543 65.1707 219.837 64.232C218.13 63.2507 216.85 61.8 215.997 59.88C215.186 57.96 214.781 55.5707 214.781 52.712V37.224C214.781 35.8587 215.122 34.856 215.805 34.216C216.487 33.5333 217.469 33.192 218.749 33.192C220.029 33.192 221.01 33.5333 221.693 34.216C222.418 34.856 222.781 35.8587 222.781 37.224V52.84C222.781 55.0587 223.229 56.7013 224.125 57.768C225.021 58.8347 226.45 59.368 228.413 59.368C230.546 59.368 232.295 58.6427 233.661 57.192C235.026 55.6987 235.709 53.736 235.709 51.304V37.224C235.709 35.8587 236.05 34.856 236.733 34.216C237.415 33.5333 238.397 33.192 239.677 33.192C240.957 33.192 241.938 33.5333 242.621 34.216C243.346 34.856 243.708 35.8587 243.708 37.224V61.416C243.708 64.1467 242.407 65.512 239.805 65.512C238.567 65.512 237.607 65.1707 236.925 64.488C236.242 63.7627 235.901 62.7387 235.901 61.416V56.552L236.797 58.472C235.901 60.776 234.535 62.5467 232.701 63.784C230.909 65.0213 228.775 65.64 226.301 65.64ZM264.003 65.64C260.462 65.64 257.795 64.6373 256.003 62.632C254.211 60.584 253.315 57.5973 253.315 53.672V23.4C253.315 22.0773 253.656 21.0747 254.339 20.392C255.022 19.7093 256.003 19.368 257.283 19.368C258.563 19.368 259.544 19.7093 260.227 20.392C260.952 21.0747 261.315 22.0773 261.315 23.4V53.288C261.315 55.2507 261.72 56.7013 262.531 57.64C263.384 58.5787 264.579 59.048 266.115 59.048C266.456 59.048 266.776 59.048 267.075 59.048C267.374 59.0053 267.672 58.9627 267.971 58.92C268.568 58.8347 268.974 59.0053 269.187 59.432C269.4 59.816 269.507 60.6267 269.507 61.864C269.507 62.9307 269.294 63.7627 268.867 64.36C268.44 64.9573 267.736 65.32 266.755 65.448C266.328 65.4907 265.88 65.5333 265.411 65.576C264.942 65.6187 264.472 65.64 264.003 65.64ZM288.992 65.64C285.749 65.64 282.933 64.9787 280.544 63.656C278.155 62.3333 276.299 60.456 274.976 58.024C273.653 55.5493 272.992 52.648 272.992 49.32C272.992 46.8027 273.355 44.5627 274.08 42.6C274.848 40.5947 275.936 38.888 277.344 37.48C278.752 36.0293 280.437 34.9413 282.4 34.216C284.363 33.448 286.56 33.064 288.992 33.064C292.235 33.064 295.051 33.7253 297.44 35.048C299.829 36.3707 301.685 38.248 303.008 40.68C304.331 43.112 304.992 45.992 304.992 49.32C304.992 51.8373 304.608 54.0987 303.84 56.104C303.115 58.1093 302.048 59.8373 300.64 61.288C299.232 62.696 297.547 63.784 295.584 64.552C293.621 65.2773 291.424 65.64 288.992 65.64ZM288.992 59.56C290.571 59.56 291.957 59.176 293.152 58.408C294.347 57.64 295.264 56.5093 295.904 55.016C296.587 53.48 296.928 51.5813 296.928 49.32C296.928 45.9067 296.203 43.368 294.752 41.704C293.301 39.9973 291.381 39.144 288.992 39.144C287.413 39.144 286.027 39.528 284.832 40.296C283.637 41.0213 282.699 42.152 282.016 43.688C281.376 45.1813 281.056 47.0587 281.056 49.32C281.056 52.6907 281.781 55.2507 283.232 57C284.683 58.7067 286.603 59.56 288.992 59.56ZM324.331 65.64C322.496 65.64 320.555 65.448 318.507 65.064C316.459 64.68 314.624 64.0187 313.003 63.08C312.32 62.6533 311.83 62.1627 311.531 61.608C311.275 61.0107 311.168 60.4347 311.211 59.88C311.296 59.2827 311.51 58.7707 311.851 58.344C312.235 57.9173 312.704 57.64 313.259 57.512C313.856 57.384 314.496 57.4907 315.179 57.832C316.886 58.6427 318.486 59.2187 319.979 59.56C321.472 59.8587 322.944 60.008 324.395 60.008C326.443 60.008 327.958 59.6667 328.939 58.984C329.963 58.2587 330.475 57.32 330.475 56.168C330.475 55.1867 330.134 54.44 329.451 53.928C328.811 53.3733 327.83 52.968 326.507 52.712L320.107 51.496C317.462 50.984 315.435 50.024 314.027 48.616C312.662 47.1653 311.979 45.3093 311.979 43.048C311.979 41 312.534 39.2293 313.643 37.736C314.795 36.2427 316.374 35.0907 318.379 34.28C320.384 33.4693 322.688 33.064 325.291 33.064C327.168 33.064 328.918 33.2773 330.539 33.704C332.203 34.088 333.803 34.7067 335.339 35.56C335.979 35.9013 336.406 36.3493 336.619 36.904C336.875 37.4587 336.939 38.0347 336.811 38.632C336.683 39.1867 336.427 39.6987 336.043 40.168C335.659 40.5947 335.168 40.872 334.571 41C334.016 41.0853 333.376 40.9573 332.651 40.616C331.328 39.9333 330.048 39.4427 328.811 39.144C327.616 38.8453 326.464 38.696 325.355 38.696C323.264 38.696 321.707 39.0587 320.683 39.784C319.702 40.5093 319.211 41.4693 319.211 42.664C319.211 43.56 319.51 44.3067 320.107 44.904C320.704 45.5013 321.622 45.9067 322.859 46.12L329.259 47.336C332.032 47.848 334.123 48.7867 335.531 50.152C336.982 51.5173 337.707 53.352 337.707 55.656C337.707 58.7707 336.491 61.224 334.059 63.016C331.627 64.7653 328.384 65.64 324.331 65.64Z" fill="white"/>
<defs>
<clipPath id="clip0_275_1100">
<rect width="78" height="67.5479" fill="white" transform="translate(0 9.72603)"/>
</clipPath>
</defs>
</svg>
